<?xml version="1.0" standalone="no"?>
<!DOCTYPE svg PUBLIC "-//W3C//DTD SVG 20010904//EN"
 "http://www.w3.org/TR/2001/REC-SVG-20010904/DTD/svg10.dtd">
<svg version="1.0" xmlns="http://www.w3.org/2000/svg"
 width="360.000000pt" height="360.000000pt" viewBox="0 0 360.000000 360.000000"
 preserveAspectRatio="xMidYMid meet">

<g transform="translate(0.000000,360.000000) scale(0.100000,-0.100000)"
fill="#000000" stroke="none">
<path d="M624 3521 c-88 -40 -115 -154 -62 -256 15 -27 67 -104 117 -170 87
-115 92 -125 137 -260 75 -226 131 -343 215 -446 16 -21 19 -31 11 -46 -6 -10
-25 -79 -43 -153 -40 -167 -46 -343 -16 -475 27 -116 85 -231 146 -288 46 -43
54 -47 101 -47 43 0 56 5 79 28 29 28 40 64 62 205 6 42 15 77 18 77 4 0 25
-37 48 -82 54 -110 118 -193 216 -281 44 -40 111 -100 148 -135 38 -34 71 -62
74 -62 4 0 -23 30 -60 67 -140 142 -350 507 -420 728 -6 18 -9 17 -36 -15 -73
-86 -99 -157 -119 -325 -6 -49 -14 -93 -18 -97 -18 -18 -71 33 -101 95 -46 97
-63 170 -68 306 -6 146 5 221 53 359 48 137 46 147 -30 233 -55 61 -97 150
-155 328 -60 183 -79 220 -182 356 -124 165 -142 223 -83 261 23 16 29 16 85
0 81 -22 212 -88 280 -142 56 -43 57 -43 170 -54 139 -13 197 -29 312 -86 300
-149 576 -417 754 -734 18 -30 54 -109 81 -175 60 -144 211 -469 253 -542 17
-29 41 -61 54 -71 13 -11 89 -41 167 -68 134 -46 153 -56 313 -163 94 -62 178
-120 188 -129 37 -32 21 -39 -110 -45 -106 -4 -145 -11 -228 -37 -126 -40
-130 -44 -109 -96 44 -108 179 -222 371 -314 109 -52 188 -102 279 -176 l55
-45 -17 33 c-24 48 -192 226 -260 276 -33 24 -99 69 -149 102 -50 32 -98 71
-107 88 l-18 30 88 21 c48 12 121 26 162 31 75 11 131 23 177 41 l24 9 -46 60
c-96 125 -353 310 -560 403 l-140 64 -57 109 c-70 133 -180 372 -238 514 -96
234 -307 505 -538 691 -92 74 -265 190 -343 230 -79 40 -219 76 -323 83 -85 6
-90 8 -145 50 -108 84 -283 156 -377 156 -22 0 -57 -9 -80 -19z"/>
<path d="M1172 3021 l-33 -6 38 -46 c21 -25 47 -64 57 -87 11 -23 23 -42 28
-42 16 0 40 72 33 98 -6 25 -69 93 -83 91 -4 -1 -22 -4 -40 -8z"/>
<path d="M54 706 c-17 -8 -34 -21 -38 -31 -3 -9 -6 -127 -6 -261 l0 -244 55 0
55 0 0 232 c0 128 4 228 8 223 5 -6 48 -100 96 -210 105 -239 121 -260 202
-253 29 3 59 10 67 17 9 6 59 111 114 232 l98 220 3 -230 2 -231 55 0 55 0 0
255 0 255 -25 16 c-34 22 -108 29 -145 14 -36 -15 -45 -31 -155 -280 -42 -96
-78 -176 -80 -178 -1 -1 -44 95 -96 214 -78 181 -99 220 -124 236 -35 21 -97
23 -141 4z"/>
<path d="M1370 395 l0 -155 -149 0 c-123 0 -152 3 -165 16 -13 12 -16 41 -16
150 l0 134 -55 0 -55 0 0 -146 0 -146 30 -28 c42 -39 99 -50 264 -50 l146 0 0
-29 c0 -58 -11 -61 -236 -61 l-204 0 0 -41 0 -40 223 3 c210 3 224 4 265 26
68 36 73 56 70 305 l-3 212 -57 3 -58 3 0 -156z"/>
</g>
</svg>
